<?xml version="1.0" encoding="UTF-8" standalone="no"?>
<!-- Created with Inkscape (http://www.inkscape.org/) -->
<svg xmlns:dc="http://purl.org/dc/elements/1.1/" xmlns:cc="http://creativecommons.org/ns#" xmlns:rdf="http://www.w3.org/1999/02/22-rdf-syntax-ns#" xmlns:svg="http://www.w3.org/2000/svg" xmlns="http://www.w3.org/2000/svg" xmlns:sodipodi="http://sodipodi.sourceforge.net/DTD/sodipodi-0.dtd" xmlns:inkscape="http://www.inkscape.org/namespaces/inkscape" width="744.09448819" height="1052.3622047" id="svg2" version="1.1" inkscape:version="0.48.3.1 r9886" sodipodi:docname="motard-man.svg">
  <title id="title4138">The road King</title>
  <defs id="defs4"/>
  <sodipodi:namedview id="base" pagecolor="#ffffff" bordercolor="#666666" borderopacity="1.0" inkscape:pageopacity="0.0" inkscape:pageshadow="2" inkscape:zoom="0.46656941" inkscape:cx="372.04724" inkscape:cy="526.18109" inkscape:document-units="px" inkscape:current-layer="capa1" showgrid="false" inkscape:window-width="1366" inkscape:window-height="712" inkscape:window-x="0" inkscape:window-y="27" inkscape:window-maximized="1" showguides="true" inkscape:guide-bbox="true"/>
  <g inkscape:label="Capa 1" inkscape:groupmode="layer" id="capa1">
    <g id="g3090" transform="translate(3.6621094e-4,1.5560913)">
      <path inkscape:connector-curvature="0" id="path2985" d="M 372.03125,47 C 238.69393,47 140.625,146.66923 140.625,269.59375 c 0,75.38225 26.65094,165.98664 88.84375,206.25 0,0 15,2.40384 10,-33.09375 -3.70522,-26.30529 -10.68553,-73.42379 -14.0625,-105.8125 -27.45287,-12.92791 -42.9375,-38.22292 -42.9375,-62.3125 0,-39.30387 47.78306,-87.16803 115.0625,-87.34375 l 0.5625,0 147.90625,0 0.5625,0 c 67.27945,0.17572 115.0625,48.03988 115.0625,87.34375 0,24.08314 -15.46715,49.38357 -42.90625,62.3125 -3.37697,32.38871 -10.38853,79.50721 -14.09375,105.8125 -5,35.49759 10,33.09375 10,33.09375 62.19281,-40.26336 88.84375,-130.86775 88.84375,-206.25 C 603.46875,146.66923 505.36857,47 372.03125,47 z M 301.6875,195.0625 c -63.52815,0.15816 -108.65625,44.84438 -108.65625,80.21875 0,35.47234 39.10394,64.25 102.875,64.25 61.13648,0 75.49783,-27.24846 76.0625,-62.28125 l 0.15625,0 c 0.56468,35.03279 14.92603,62.28125 76.0625,62.28125 63.77106,0 102.875,-28.77766 102.875,-64.25 0,-35.37437 -45.12809,-80.06059 -108.65625,-80.21875 l -0.53125,0 -139.65625,0 -0.53125,0 z M 263,261.75 c 14.41981,-0.10765 36.51558,0.78959 51.84375,6.40625 4.61507,1.69109 12.78125,7.34375 12.78125,7.34375 l -9.8125,7.875 -3.53125,0 c 0.005,0.19624 0.0312,0.39616 0.0312,0.59375 0,11.30676 -9.19324,20.46875 -20.5,20.46875 -11.30676,0 -20.46875,-9.16199 -20.46875,-20.46875 0,-0.0629 -0.0216,-0.37937 -0.0312,-0.65625 -0.15819,-0.19547 -3.97402,-4.84208 -9.78125,-7.71875 -5.05967,-2.50636 -15.0625,-13.34375 -15.0625,-13.34375 0,0 5.87936,-0.43541 14.53125,-0.5 z m 213.5625,0 c 11.06799,-0.0929 19.0625,0.5 19.0625,0.5 0,0 -10.00283,10.83739 -15.0625,13.34375 -5.80723,2.87667 -9.62306,7.52328 -9.78125,7.71875 -0.01,0.27688 -0.0312,0.59335 -0.0312,0.65625 0,11.30676 -9.16199,20.46875 -20.46875,20.46875 -11.30676,0 -20.5,-9.16199 -20.5,-20.46875 0,-0.19759 0.0258,-0.39751 0.0312,-0.59375 l -3.53125,0 -9.8125,-7.875 c 0,0 8.16618,-5.65266 12.78125,-7.34375 13.79535,-5.055 33.08223,-6.28683 47.3125,-6.40625 z M 333.59375,393.5625 c -13.09963,0 -41.25,11.1875 -41.25,11.1875 -18.66004,4.30984 -17.91089,5.16832 -21.09375,24.40625 l -0.1875,0 c 0.0294,0.17635 0.0616,0.35244 0.0937,0.53125 -0.0377,0.2304 -0.0542,0.35651 -0.0937,0.59375 l 0.1875,0 c 4.20285,21.01046 27.29379,57.59375 46.4375,57.59375 0,0 36.00043,10.15625 54.375,10.15625 18.37457,0 54.34375,-10.15625 54.34375,-10.15625 18.87455,-3.52082 42.2017,-36.58286 46.40625,-57.59375 l 0.21875,0 c -0.0402,-0.24268 -0.0549,-0.38828 -0.0937,-0.625 0.0304,-0.16819 0.0664,-0.33399 0.0937,-0.5 l -0.15625,0 C 469.70105,409.69699 470.82822,404.75 451.75,404.75 c 0,0 -28.15035,-11.1875 -41.25,-11.1875 -13.09965,0 -25.33785,2.03125 -38.4375,2.03125 -13.09964,0 -25.3691,-2.03125 -38.46875,-2.03125 z m 40.125,10.90625 c 5.04081,0 10.11446,1.38562 12.65625,4.1875 6.63621,7.31524 -1.84375,35.09375 -1.84375,35.09375 l -21.59375,0 c 0,0 -8.47995,-27.77851 -1.84375,-35.09375 2.5418,-2.80188 7.58419,-4.1875 12.625,-4.1875 z m -31,1.59375 c 3.6612,0 7.3332,1.3856 9.875,4.1875 6.72873,7.41724 1.84375,35.53125 1.84375,35.53125 L 334.71875,443.75 c 0,0 -8.13891,-26.5607 -1.84375,-33.5 2.5418,-2.8019 6.18255,-4.1875 9.84375,-4.1875 z m 62,0 c 3.6612,0 7.33321,1.3856 9.875,4.1875 6.29517,6.9393 -1.84375,33.5 -1.84375,33.5 l -19.71875,2.03125 c 0,0 -4.88498,-28.11401 1.84375,-35.53125 2.5418,-2.8019 6.18255,-4.1875 9.84375,-4.1875 z m -85.53125,8.625 c 3.62922,-0.0647 6.5,0.375 6.5,0.375 l 1.84375,28.6875 -21.5625,-2.03125 c 0,0 -3.62209,-17.89355 0,-22.625 2.64573,-3.45605 8.55262,-4.323 13.21875,-4.40625 z m 108.625,0 c 4.80968,-0.0706 11.78234,0.56982 14.71875,4.40625 3.62172,4.7318 0,22.625 0,22.625 l -21.5625,2.03125 1.84375,-28.6875 c 0,0 2.11419,-0.33255 5,-0.375 z m -121.84375,33.125 21.5625,2.03125 c 0,0 4.40491,15.73811 0,20.59375 -5.08359,5.60377 -12.7914,5.60377 -17.875,0 -4.83848,-5.33358 -3.6875,-22.625 -3.6875,-22.625 z m 136.5625,0 c 0,0 1.15097,17.29142 -3.6875,22.625 -5.07827,5.59791 -12.79672,5.59791 -17.875,0 -4.40491,-4.85564 0,-20.59375 0,-20.59375 l 21.5625,-2.03125 z m -107.8125,2.03125 21.5625,2.03125 c 0,0 3.1507,19.86949 -1.84375,25.375 -5.0836,5.60378 -14.63515,3.57253 -19.71875,-2.03125 -5.42802,-5.98344 0,-25.375 0,-25.375 z m 28.21875,0 21.59375,0 c 0,0 6.1101,21.82719 0,28.5625 -5.0836,5.60376 -16.51015,5.60376 -21.59375,0 -6.11011,-6.73531 0,-28.5625 0,-28.5625 z m 49.8125,0 c 0,0 5.42802,19.39156 0,25.375 -5.0836,5.60378 -14.63515,7.63503 -19.71875,2.03125 -4.99445,-5.50551 -1.84375,-25.375 -1.84375,-25.375 l 21.5625,-2.03125 z" style="fill:#000000;fill-opacity:1;stroke:none"/>
      <path id="rect3034" d="m 372.03125,511.28125 c -37.67069,0 -70.05251,22.58832 -84.34375,54.96875 l -57.5,0 0,36.4375 49.6875,0 c -0.002,0.25063 0,0.49889 0,0.75 0,38.01602 23.01781,70.63244 55.875,84.71875 -20.57357,10.69992 -34.5625,32.1832 -34.5625,57.0625 l 0,192.71875 c 0,35.62171 28.65954,64.3125 64.28125,64.3125 l 13.15625,0 c 35.62171,0 64.28125,-28.69079 64.28125,-64.3125 l 0,-192.71875 c 0,-24.8793 -13.98893,-46.36258 -34.5625,-57.0625 32.84307,-14.09249 55.84375,-46.71294 55.84375,-84.71875 0,-0.25115 0.002,-0.49932 0,-0.75 l 49.75,0 0,-36.4375 -57.53125,0 c -0.002,-0.004 -0.0296,0.004 -0.0312,0 -14.29382,-32.37432 -46.6775,-54.96875 -84.34375,-54.96875 z m 0,24.625 c 37.28699,0 67.5,30.24426 67.5,67.53125 0,37.28699 -30.21301,67.5 -67.5,67.5 -37.28699,0 -67.53125,-30.21301 -67.53125,-67.5 0,-37.28699 30.24426,-67.53125 67.53125,-67.53125 z" style="fill:#000000;fill-opacity:1;stroke:none" inkscape:connector-curvature="0"/>
      <g transform="translate(-2e-6,-6)" id="g3076">
        <path style="fill:#000000;fill-opacity:1;stroke:none" d="m 136.01563,519.09823 c -15.67104,0 -28.63784,11.10728 -31.53125,25.90625 -3.51865,-1.94105 -7.469456,-3.03125 -11.625006,-3.03125 -15.11807,0 -27.28125,14.34539 -27.28125,32.15625 l 0,45.28125 c 0,17.81086 12.16318,32.15625 27.28125,32.15625 4.39334,0 8.549546,-1.21989 12.218756,-3.375 3.80171,13.51761 16.17213,23.375 30.9375,23.375 16.10874,0 29.39233,-11.70624 31.78125,-27.125 5.51735,4.45992 12.53961,7.125 20.21875,7.125 17.81086,0 32.15625,-14.34539 32.15625,-32.15625 l 0,-57.875 c 0,-17.81086 -14.34539,-32.125 -32.15625,-32.125 -8.76026,0 -16.6814,3.4492 -22.46875,9.09375 -4.91886,-11.42972 -16.25761,-19.40625 -29.53125,-19.40625 z m 48.78125,137.03125 c -17.81086,0 -32.125,14.31414 -32.125,32.125 0,17.81086 14.31414,32.15625 32.125,32.15625 l 31.59375,0 c 17.81086,0 32.125,-14.34539 32.125,-32.15625 0,-17.81086 -14.31414,-32.125 -32.125,-32.125 l -31.59375,0 z" id="rect3043" inkscape:connector-curvature="0"/>
        <path inkscape:connector-curvature="0" id="path3054" d="m 608.07813,519.09823 c 15.67104,0 28.63784,11.10728 31.53125,25.90625 3.51864,-1.94105 7.46945,-3.03125 11.625,-3.03125 15.11807,0 27.28125,14.34539 27.28125,32.15625 l 0,45.28125 c 0,17.81086 -12.16318,32.15625 -27.28125,32.15625 -4.39334,0 -8.54955,-1.21989 -12.21875,-3.375 -3.80171,13.51761 -16.17213,23.375 -30.9375,23.375 -16.10874,0 -29.39233,-11.70624 -31.78125,-27.125 -5.51735,4.45992 -12.53961,7.125 -20.21875,7.125 -17.81086,0 -32.15625,-14.34539 -32.15625,-32.15625 l 0,-57.875 c 0,-17.81086 14.34539,-32.125 32.15625,-32.125 8.76026,0 16.6814,3.4492 22.46875,9.09375 4.91886,-11.42972 16.25761,-19.40625 29.53125,-19.40625 z m -48.78125,137.03125 c 17.81086,0 32.125,14.31414 32.125,32.125 0,17.81086 -14.31414,32.15625 -32.125,32.15625 l -31.59375,0 c -17.81086,0 -32.125,-14.34539 -32.125,-32.15625 0,-17.81086 14.31414,-32.125 32.125,-32.125 l 31.59375,0 z" style="fill:#000000;fill-opacity:1;stroke:none"/>
      </g>
    </g>
  </g>
  <metadata>
    <rdf:RDF>
      <cc:Work>
        <dc:format>image/svg+xml</dc:format>
        <dc:type rdf:resource="http://purl.org/dc/dcmitype/StillImage"/>
        <cc:license rdf:resource="http://creativecommons.org/licenses/publicdomain/"/>
        <dc:publisher>
          <cc:Agent rdf:about="http://openclipart.org/">
            <dc:title>Openclipart</dc:title>
          </cc:Agent>
        </dc:publisher>
        <dc:title>The Road King</dc:title>
        <dc:date>2013-11-25T14:26:02</dc:date>
        <dc:description>Motorbike rider</dc:description>
        <dc:source>http://openclipart.org/detail/189133/the-road-king-by-dux-phoenix-189133</dc:source>
        <dc:creator>
          <cc:Agent>
            <dc:title>Dux Phoenix</dc:title>
          </cc:Agent>
        </dc:creator>
        <dc:subject>
          <rdf:Bag>
            <rdf:li>clip-art</rdf:li>
            <rdf:li>clipart</rdf:li>
            <rdf:li>motorbike</rdf:li>
            <rdf:li>sport</rdf:li>
          </rdf:Bag>
        </dc:subject>
      </cc:Work>
      <cc:License rdf:about="http://creativecommons.org/licenses/publicdomain/">
        <cc:permits rdf:resource="http://creativecommons.org/ns#Reproduction"/>
        <cc:permits rdf:resource="http://creativecommons.org/ns#Distribution"/>
        <cc:permits rdf:resource="http://creativecommons.org/ns#DerivativeWorks"/>
      </cc:License>
    </rdf:RDF>
  </metadata>
</svg>
